<?xml version="1.0" encoding="UTF-8" standalone="no"?>
<!-- Created with Inkscape (http://www.inkscape.org/) -->

<svg
   xmlns:dc="http://purl.org/dc/elements/1.1/"
   xmlns:cc="http://creativecommons.org/ns#"
   xmlns:rdf="http://www.w3.org/1999/02/22-rdf-syntax-ns#"
   xmlns:svg="http://www.w3.org/2000/svg"
   xmlns="http://www.w3.org/2000/svg"
   xmlns:sodipodi="http://sodipodi.sourceforge.net/DTD/sodipodi-0.dtd"
   xmlns:inkscape="http://www.inkscape.org/namespaces/inkscape"
   width="114.982mm"
   height="82.751999mm"
   viewBox="0 0 114.982 82.751999"
   version="1.1"
   id="svg8"
   inkscape:version="0.92.3 (2405546, 2018-03-11)"
   sodipodi:docname="brand.svg">
  <defs
     id="defs2" />
  <sodipodi:namedview
     id="base"
     pagecolor="#ffffff"
     bordercolor="#666666"
     borderopacity="1.0"
     inkscape:pageopacity="0.0"
     inkscape:pageshadow="2"
     inkscape:zoom="0.63351388"
     inkscape:cx="32.882768"
     inkscape:cy="166.90762"
     inkscape:document-units="mm"
     inkscape:current-layer="layer1"
     showgrid="false"
     inkscape:object-nodes="false"
     inkscape:window-width="1366"
     inkscape:window-height="705"
     inkscape:window-x="-8"
     inkscape:window-y="32"
     inkscape:window-maximized="1" />
  <metadata
     id="metadata5">
    <rdf:RDF>
      <cc:Work
         rdf:about="">
        <dc:format>image/svg+xml</dc:format>
        <dc:type
           rdf:resource="http://purl.org/dc/dcmitype/StillImage" />
        <dc:title></dc:title>
      </cc:Work>
    </rdf:RDF>
  </metadata>
  <g
     inkscape:label="Capa 1"
     inkscape:groupmode="layer"
     id="layer1"
     transform="translate(0,-214.248)">
    <flowRoot
       xml:space="preserve"
       id="flowRoot829"
       style="font-style:normal;font-variant:normal;font-weight:normal;font-stretch:normal;font-size:40px;line-height:1.25;font-family:Orbitron;-inkscape-font-specification:Orbitron;letter-spacing:0px;word-spacing:0px;fill:#000000;fill-opacity:1;stroke:none"
       transform="scale(0.26458333)"><flowRegion
         id="flowRegion831"><rect
           id="rect833"
           width="425.71429"
           height="54.285713"
           x="-11.428572"
           y="493.94824" /></flowRegion><flowPara
         id="flowPara835"></flowPara></flowRoot>    <flowRoot
       xml:space="preserve"
       id="flowRoot837"
       style="font-style:normal;font-variant:normal;font-weight:normal;font-stretch:normal;font-size:40px;line-height:1.25;font-family:Orbitron;-inkscape-font-specification:Orbitron;letter-spacing:0px;word-spacing:0px;fill:#000000;fill-opacity:1;stroke:none"
       transform="scale(0.26458333)"><flowRegion
         id="flowRegion839"><rect
           id="rect841"
           width="311.42856"
           height="48.57143"
           x="105.71429"
           y="588.23395" /></flowRegion><flowPara
         id="flowPara843"></flowPara></flowRoot>    <g
       id="g871"
       transform="translate(-11.642336,113.95934)">
      <g
         id="text817"
         style="font-style:normal;font-variant:normal;font-weight:normal;font-stretch:normal;font-size:113.20031738px;line-height:1.25;font-family:Orbitron;-inkscape-font-specification:Orbitron;letter-spacing:0px;word-spacing:0px;fill:#000000;fill-opacity:1;stroke:none;stroke-width:2.83000803"
         aria-label="M">
        <path
           id="path849"
           style="font-style:normal;font-variant:normal;font-weight:900;font-stretch:normal;font-family:Orbitron;-inkscape-font-specification:'Orbitron Heavy';fill:#eea826;fill-opacity:1"
           d="M 57.375357,133.54481 29.75448,100.60351 H 11.642429 v 81.50423 h 17.546049 v -54.56255 l 28.186879,33.39409 c 9.056026,-10.64083 18.904453,-22.64006 28.073679,-33.50729 v 54.67575 H 103.10829 V 100.60351 H 84.883034 Z"
           inkscape:connector-curvature="0" />
      </g>
      <g
         id="text847"
         style="font-style:normal;font-variant:normal;font-weight:normal;font-stretch:normal;font-size:24.0055027px;line-height:1.25;font-family:Orbitron;-inkscape-font-specification:Orbitron;letter-spacing:0px;word-spacing:0px;fill:#ffffff;fill-opacity:1;stroke:none;stroke-width:0.60013753"
         transform="matrix(0,-1.0208205,0.9796042,0,0,0)"
         aria-label="GUIDE">
        <path
           id="path852"
           style="font-style:normal;font-variant:normal;font-weight:bold;font-stretch:normal;font-family:Orbitron;-inkscape-font-specification:'Orbitron Bold';fill:#ffffff;stroke-width:0.60013753"
           d="m -162.02331,115.31342 c 0,-1.84842 -1.51235,-3.33676 -3.36077,-3.33676 h -10.58643 c -1.84842,0 -3.33676,1.48834 -3.33676,3.33676 v 10.61044 c 0,1.84842 1.48834,3.33676 3.33676,3.33676 h 10.58643 c 1.84842,0 3.36077,-1.48834 3.36077,-3.33676 v -6.43348 h -7.10563 v 3.16873 h 3.9129 v 3.26475 c 0,0.096 -0.072,0.16803 -0.16804,0.16803 h -10.58643 c -0.096,0 -0.16804,-0.072 -0.16804,-0.16803 v -10.61044 c 0,-0.096 0.072,-0.16804 0.16804,-0.16804 h 10.58643 c 0.096,0 0.16804,0.072 0.16804,0.16804 v 1.34431 h 3.19273 z"
           inkscape:connector-curvature="0" />
        <path
           id="path854"
           style="font-style:normal;font-variant:normal;font-weight:bold;font-stretch:normal;font-family:Orbitron;-inkscape-font-specification:'Orbitron Bold';fill:#ffffff;stroke-width:0.60013753"
           d="m -145.33761,125.92386 c 0,0.096 -0.072,0.16803 -0.14403,0.16803 h -10.61044 c -0.096,0 -0.16803,-0.072 -0.16803,-0.16803 v -13.9472 h -3.16873 v 13.9472 c 0,1.84842 1.48834,3.33676 3.33676,3.33676 h 10.61044 c 1.82441,0 3.33676,-1.48834 3.33676,-3.33676 v -13.9472 h -3.19273 z"
           inkscape:connector-curvature="0" />
        <path
           id="path856"
           style="font-style:normal;font-variant:normal;font-weight:bold;font-stretch:normal;font-family:Orbitron;-inkscape-font-specification:'Orbitron Bold';fill:#ffffff;stroke-width:0.60013753"
           d="m -139.47727,129.26062 h 3.16873 v -17.28396 h -3.16873 z"
           inkscape:connector-curvature="0" />
        <path
           id="path858"
           style="font-style:normal;font-variant:normal;font-weight:bold;font-stretch:normal;font-family:Orbitron;-inkscape-font-specification:'Orbitron Bold';fill:#ffffff;stroke-width:0.60013753"
           d="m -134.15517,111.97666 v 17.28396 h 13.92319 c 1.84842,0 3.36077,-1.48834 3.36077,-3.33676 v -10.61044 c 0,-1.84842 -1.51235,-3.33676 -3.36077,-3.33676 z m 14.09123,13.9472 c 0,0.096 -0.072,0.16803 -0.16804,0.16803 h -10.58643 c -0.096,0 -0.16804,-0.072 -0.16804,-0.16803 v -10.61044 c 0,-0.096 0.072,-0.16804 0.16804,-0.16804 h 10.58643 c 0.096,0 0.16804,0.072 0.16804,0.16804 z"
           inkscape:connector-curvature="0" />
        <path
           id="path860"
           style="font-style:normal;font-variant:normal;font-weight:bold;font-stretch:normal;font-family:Orbitron;-inkscape-font-specification:'Orbitron Bold';fill:#ffffff;stroke-width:0.60013753"
           d="m -98.243313,111.97666 h -15.891647 v 17.28396 h 15.891647 v -3.16873 H -110.94222 V 122.203 h 10.22634 v -3.16872 h -10.22634 v -3.8889 h 12.698907 z"
           inkscape:connector-curvature="0" />
      </g>
    </g>
  </g>
</svg>
